<svg xmlns="http://www.w3.org/2000/svg" width="61.61" height="70.2" viewBox="0 0 61.61 70.2">
  <g id="businessman" transform="translate(0.118 0.1)">
    <g id="Group_575" data-name="Group 575" transform="translate(0)">
      <g id="Group_574" data-name="Group 574" transform="translate(0)">
        <path id="Path_91" data-name="Path 91" d="M89.442,302.424a12.389,12.389,0,0,0-8.323-9.739l-9.714-3.24V288H69.147v2.119l-1.686,6.741-4.56-5.474H59.585l-4.56,5.474-1.685-6.741V288H51.082v1.445l-9.714,3.24a12.393,12.393,0,0,0-8.323,9.739l-2.489,14.933H91.93ZM55.749,315.1H43.3l1-10.045-2.247-.228L41.029,315.1H33.223l2.05-12.3a10.14,10.14,0,0,1,6.81-7.97l9.329-3.108,2.5,10,2.546-3.053,1.347,2.019Zm8.709,0H58.029l2.135-14.948-2.2-3.295,2.676-3.208h1.2l2.676,3.208-2.2,3.295Zm17,0-1.028-10.273-2.247.224,1,10.049H66.738L64.68,300.683l1.347-2.019,2.546,3.057,2.5-10.007,9.329,3.108a10.153,10.153,0,0,1,6.81,7.974l2.05,12.3Z" transform="translate(-30.556 -247.357)" fill="#92278f" stroke="#fbb034" stroke-width="0.2"/>
        <path id="Path_92" data-name="Path 92" d="M117.019,30.42a12.339,12.339,0,0,0,3.139,5.3l4.4,4.4a5.61,5.61,0,0,0,3.992,1.653h5.291a5.612,5.612,0,0,0,3.992-1.653l4.4-4.4a12.346,12.346,0,0,0,3.139-5.3,5.606,5.606,0,0,0,2.721-10.1h.035V13.548a5.654,5.654,0,0,0-4.8-5.582A12.081,12.081,0,0,0,132.01,0H131.2a16.954,16.954,0,0,0-16.936,16.935v3.387h.035a5.606,5.606,0,0,0,2.722,10.1Zm26.6-3.485a10.093,10.093,0,0,1-2.976,7.186l-4.4,4.4a3.409,3.409,0,0,1-2.395.991h-5.291a3.411,3.411,0,0,1-2.395-.991l-4.4-4.4a10.092,10.092,0,0,1-2.976-7.185V21.451h4.435a20.254,20.254,0,0,0,13.379-5l.345.576a9.157,9.157,0,0,0,6.68,4.346Zm4.516-2.1a3.379,3.379,0,0,1-2.312,3.2c.032-.362.053-.728.053-1.1V21.659A3.383,3.383,0,0,1,148.132,24.838Zm-31.612-7.9A14.694,14.694,0,0,1,131.2,2.258h.812A9.809,9.809,0,0,1,141.4,9.343l.234.819h.851a3.391,3.391,0,0,1,3.387,3.387v5.759a5.637,5.637,0,0,0-1.129-.114,6.881,6.881,0,0,1-5.872-3.325l-1.807-3.012-1.024,1.023a18.02,18.02,0,0,1-12.829,5.314h-5.564a5.645,5.645,0,0,0-1.129.114Zm0,4.724v5.277c0,.369.022.735.053,1.1a3.366,3.366,0,0,1-.053-6.375Z" transform="translate(-100.509)" fill="#92278f" stroke="#fbb034" stroke-width="0.2"/>
      </g>
    </g>
  </g>
</svg>
