<svg xmlns="http://www.w3.org/2000/svg" width="53.727" height="70.2" viewBox="0 0 53.727 70.2">
  <g id="office" transform="translate(0.1 0.1)">
    <path id="Path_72" data-name="Path 72" d="M67.632,63.029H63.393V10.591a3.148,3.148,0,0,0-3.145-3.145H42.783V.955A.957.957,0,0,0,41.826,0h-16a.957.957,0,0,0-.957.955V7.446H23.4a3.148,3.148,0,0,0-3.145,3.145V63.029H16.019a.958.958,0,0,0-.957.957v5.057a.958.958,0,0,0,.957.957H67.632a.957.957,0,0,0,.957-.957V63.986a.957.957,0,0,0-.957-.957ZM26.786,1.914H40.869V7.446H26.786Zm-4.615,8.677a1.232,1.232,0,0,1,1.23-1.23H60.249a1.232,1.232,0,0,1,1.23,1.23V63.029H48.935V52.638h2.391a.957.957,0,0,0,.957-.957v-4.3a.957.957,0,0,0-.957-.957h-19a.957.957,0,0,0-.957.957v4.3a.957.957,0,0,0,.957.957h2.393V63.029H22.172ZM33.28,50.721v-2.39h17.09v2.39Zm3.348,1.914H47.021V63.026H36.63ZM66.675,68.086h-49.7V64.943h49.7Z" transform="translate(-15.062 0)" fill="#fbb034" stroke="#fbb034" stroke-width="0.2"/>
    <path id="Path_73" data-name="Path 73" d="M35.519,30.8H46.628a.957.957,0,0,0,.957-.957V24.573a.957.957,0,0,0-.957-.957H35.519a.957.957,0,0,0-.957.957v5.272A.958.958,0,0,0,35.519,30.8Zm.957-5.272h9.195v3.358H36.476Z" transform="translate(-23.898 -10.701)" fill="#fbb034" stroke="#fbb034" stroke-width="0.2"/>
    <path id="Path_74" data-name="Path 74" d="M35.519,51.607H46.628a.956.956,0,0,0,.957-.957V45.378a.957.957,0,0,0-.957-.957H35.519a.958.958,0,0,0-.957.957V50.65A.957.957,0,0,0,35.519,51.607Zm.957-5.272h9.195v3.358H36.476Z" transform="translate(-23.898 -20.128)" fill="#fbb034" stroke="#fbb034" stroke-width="0.2"/>
    <path id="Path_75" data-name="Path 75" d="M47.585,71.456V66.184a.957.957,0,0,0-.957-.957H35.519a.957.957,0,0,0-.957.957v5.272a.958.958,0,0,0,.957.957H46.628A.957.957,0,0,0,47.585,71.456ZM45.671,70.5H36.476V67.141h9.195Z" transform="translate(-23.898 -29.555)" fill="#fbb034" stroke="#fbb034" stroke-width="0.2"/>
    <path id="Path_76" data-name="Path 76" d="M70.582,30.8H81.69a.957.957,0,0,0,.957-.957V24.573a.956.956,0,0,0-.957-.957H70.582a.957.957,0,0,0-.957.957v5.272A.957.957,0,0,0,70.582,30.8Zm.957-5.272h9.194v3.358H71.539Z" transform="translate(-39.785 -10.701)" fill="#fbb034" stroke="#fbb034" stroke-width="0.2"/>
    <path id="Path_77" data-name="Path 77" d="M70.582,51.607H81.69a.956.956,0,0,0,.957-.957V45.378a.957.957,0,0,0-.957-.957H70.582a.957.957,0,0,0-.957.957V50.65a.956.956,0,0,0,.957.957Zm.957-5.272h9.194v3.358H71.539Z" transform="translate(-39.785 -20.128)" fill="#fbb034" stroke="#fbb034" stroke-width="0.2"/>
    <path id="Path_78" data-name="Path 78" d="M70.582,72.413H81.69a.957.957,0,0,0,.957-.957V66.184a.957.957,0,0,0-.957-.957H70.582a.957.957,0,0,0-.957.957v5.272A.957.957,0,0,0,70.582,72.413Zm.957-5.272h9.194V70.5H71.539Z" transform="translate(-39.785 -29.555)" fill="#fbb034" stroke="#fbb034" stroke-width="0.2"/>
  </g>
</svg>
