<svg width="40" height="28" viewBox="0 0 40 28" fill="none" xmlns="http://www.w3.org/2000/svg">
<g clip-path="url(#clip0_187_2)">
<path d="M14.5186 8.2963H16.5926V10.3704H14.5186V8.2963Z" fill="#9B9B9B"/>
<path d="M22.8147 8.2963H24.8888V10.3704H22.8147V8.2963Z" fill="#9B9B9B"/>
<path d="M18.6667 8.2963H20.7408V10.3704H18.6667V8.2963Z" fill="#9B9B9B"/>
<path d="M14.5186 4.14815H16.5926V6.22222H14.5186V4.14815Z" fill="#9B9B9B"/>
<path d="M22.8147 4.14815H24.8888V6.22222H22.8147V4.14815Z" fill="#9B9B9B"/>
<path d="M18.6667 4.14815H20.7408V6.22222H18.6667V4.14815Z" fill="#9B9B9B"/>
<path d="M18.6667 12.4444H20.7408V14.5185H18.6667V12.4444Z" fill="#9B9B9B"/>
<path d="M18.6667 16.5926H20.7408V18.6667H18.6667V16.5926Z" fill="#9B9B9B"/>
<path d="M14.5186 12.4444H16.5926V14.5185H14.5186V12.4444Z" fill="#9B9B9B"/>
<path d="M22.8147 12.4444H24.8888V14.5185H22.8147V12.4444Z" fill="#9B9B9B"/>
<path d="M14.5186 16.5926H16.5926V18.6667H14.5186V16.5926Z" fill="#9B9B9B"/>
<path d="M22.8147 16.5926H24.8888V18.6667H22.8147V16.5926Z" fill="#9B9B9B"/>
<path d="M36.2963 9.33333H29.037V1.03704C29.037 0.761998 28.9278 0.498222 28.7333 0.30374C28.5388 0.109258 28.275 0 28 0H11.4074C11.1324 0 10.8686 0.109258 10.6741 0.30374C10.4796 0.498222 10.3704 0.761998 10.3704 1.03704V9.33333H3.11111C2.83607 9.33333 2.5723 9.44259 2.37782 9.63707C2.18333 9.83156 2.07407 10.0953 2.07407 10.3704V25.9259H0V28H39.4074V25.9259H37.3333V10.3704C37.3333 10.0953 37.2241 9.83156 37.0296 9.63707C36.8351 9.44259 36.5713 9.33333 36.2963 9.33333ZM35.2593 11.4074V25.9259H29.037V11.4074H35.2593ZM26.963 2.07407V25.9259H23.8519V22.8148H24.8889V20.7407H14.5185V22.8148H15.5556V25.9259H12.4444V2.07407H26.963ZM21.7778 22.8148V25.9259H17.6296V22.8148H21.7778ZM4.14815 11.4074H10.3704V25.9259H4.14815V11.4074Z" fill="#9B9B9B"/>
<path d="M31.1111 13.4815H33.1852V15.5556H31.1111V13.4815Z" fill="#9B9B9B"/>
<path d="M31.1111 17.6296H33.1852V19.7037H31.1111V17.6296Z" fill="#9B9B9B"/>
<path d="M31.1111 21.7778H33.1852V23.8519H31.1111V21.7778Z" fill="#9B9B9B"/>
<path d="M6.22217 13.4815H8.29624V15.5556H6.22217V13.4815Z" fill="#9B9B9B"/>
<path d="M6.22217 17.6296H8.29624V19.7037H6.22217V17.6296Z" fill="#9B9B9B"/>
<path d="M6.22217 21.7778H8.29624V23.8519H6.22217V21.7778Z" fill="#9B9B9B"/>
</g>
<defs>
<clipPath id="clip0_187_2">
<rect width="39.4074" height="28" fill="white"/>
</clipPath>
</defs>
</svg>
