<svg xmlns="http://www.w3.org/2000/svg" width="30.224" height="30" viewBox="0 0 30.224 30">
  <g id="business-and-trade" transform="translate(0 -0.178)">
    <path id="Path_103" data-name="Path 103" d="M16.409,2.309,2.569.206A2.232,2.232,0,0,0,.781.7,2.252,2.252,0,0,0,0,2.384V28.919a1.263,1.263,0,0,0,1.259,1.259H5.352V23.566a2.2,2.2,0,0,1,2.2-2.2H10.7a2.2,2.2,0,0,1,2.2,2.2v6.612H18.26V4.487a2.205,2.205,0,0,0-1.851-2.179ZM6.926,18.529H5.037a.945.945,0,1,1,0-1.889H6.926a.945.945,0,1,1,0,1.889Zm0-3.778H5.037a.945.945,0,1,1,0-1.889H6.926a.945.945,0,1,1,0,1.889Zm0-3.778H5.037a.945.945,0,1,1,0-1.889H6.926a.945.945,0,1,1,0,1.889Zm0-3.778H5.037a.945.945,0,1,1,0-1.889H6.926a.945.945,0,0,1,0,1.889Zm6.3,11.334H11.334a.945.945,0,1,1,0-1.889h1.889a.945.945,0,1,1,0,1.889Zm0-3.778H11.334a.945.945,0,1,1,0-1.889h1.889a.945.945,0,1,1,0,1.889Zm0-3.778H11.334a.945.945,0,1,1,0-1.889h1.889a.945.945,0,1,1,0,1.889Zm0-3.778H11.334a.945.945,0,1,1,0-1.889h1.889a.945.945,0,0,1,0,1.889Z" transform="translate(0 0)" fill="#fff"/>
    <path id="Path_104" data-name="Path 104" d="M24.467,11.229,15.5,9.351V27.8H24a2.206,2.206,0,0,0,2.2-2.2V13.382A2.193,2.193,0,0,0,24.467,11.229ZM21.482,24.021H19.593a.945.945,0,0,1,0-1.889h1.889a.945.945,0,1,1,0,1.889Zm0-3.778H19.593a.945.945,0,0,1,0-1.889h1.889a.945.945,0,0,1,0,1.889Zm0-3.778H19.593a.945.945,0,0,1,0-1.889h1.889a.945.945,0,1,1,0,1.889Z" transform="translate(4.02 2.379)" fill="#fff"/>
  </g>
</svg>
