<svg width="28" height="28" viewBox="0 0 28 28" fill="none" xmlns="http://www.w3.org/2000/svg">
<path d="M19.8333 21C19.8333 20.3812 19.5875 19.7877 19.1499 19.3501C18.7123 18.9125 18.1188 18.6667 17.5 18.6667H10.5C9.88112 18.6667 9.28763 18.9125 8.85004 19.3501C8.41246 19.7877 8.16663 20.3812 8.16663 21" stroke="#9B9B9B" stroke-width="2" stroke-linecap="round" stroke-linejoin="round"/>
<path d="M22.1667 4.66669H5.83333C4.54467 4.66669 3.5 5.71136 3.5 7.00002V23.3334C3.5 24.622 4.54467 25.6667 5.83333 25.6667H22.1667C23.4553 25.6667 24.5 24.622 24.5 23.3334V7.00002C24.5 5.71136 23.4553 4.66669 22.1667 4.66669Z" stroke="#9B9B9B" stroke-width="2" stroke-linecap="round" stroke-linejoin="round"/>
<path d="M14 14C15.2886 14 16.3333 12.9553 16.3333 11.6666C16.3333 10.378 15.2886 9.33331 14 9.33331C12.7113 9.33331 11.6666 10.378 11.6666 11.6666C11.6666 12.9553 12.7113 14 14 14Z" stroke="#9B9B9B" stroke-width="2" stroke-linecap="round" stroke-linejoin="round"/>
<path d="M9.33337 2.33331V4.66665" stroke="#9B9B9B" stroke-width="2" stroke-linecap="round" stroke-linejoin="round"/>
<path d="M18.6666 2.33331V4.66665" stroke="#9B9B9B" stroke-width="2" stroke-linecap="round" stroke-linejoin="round"/>
</svg>
