<svg width="28" height="28" viewBox="0 0 28 28" fill="none" xmlns="http://www.w3.org/2000/svg">
<path d="M17.5 2.33325H10.5C9.85571 2.33325 9.33337 2.85559 9.33337 3.49992V5.83325C9.33337 6.47758 9.85571 6.99992 10.5 6.99992H17.5C18.1444 6.99992 18.6667 6.47758 18.6667 5.83325V3.49992C18.6667 2.85559 18.1444 2.33325 17.5 2.33325Z" stroke="#9B9B9B" stroke-width="2" stroke-linecap="round" stroke-linejoin="round"/>
<path d="M18.6666 4.66675H21C21.6188 4.66675 22.2123 4.91258 22.6499 5.35017C23.0875 5.78775 23.3333 6.38124 23.3333 7.00008V23.3334C23.3333 23.9523 23.0875 24.5457 22.6499 24.9833C22.2123 25.4209 21.6188 25.6667 21 25.6667H6.99996C6.38112 25.6667 5.78763 25.4209 5.35004 24.9833C4.91246 24.5457 4.66663 23.9523 4.66663 23.3334V7.00008C4.66663 6.38124 4.91246 5.78775 5.35004 5.35017C5.78763 4.91258 6.38112 4.66675 6.99996 4.66675H9.33329" stroke="#9B9B9B" stroke-width="2" stroke-linecap="round" stroke-linejoin="round"/>
<path d="M14 12.8333H18.6667" stroke="#9B9B9B" stroke-width="2" stroke-linecap="round" stroke-linejoin="round"/>
<path d="M14 18.6667H18.6667" stroke="#9B9B9B" stroke-width="2" stroke-linecap="round" stroke-linejoin="round"/>
<path d="M9.33337 12.8333H9.34504" stroke="#9B9B9B" stroke-width="2" stroke-linecap="round" stroke-linejoin="round"/>
<path d="M9.33337 18.6667H9.34504" stroke="#9B9B9B" stroke-width="2" stroke-linecap="round" stroke-linejoin="round"/>
</svg>
