<svg xmlns="http://www.w3.org/2000/svg" width="30" height="30" viewBox="0 0 30 30">
  <g id="list" transform="translate(-3 -3)">
    <path id="Path_108" data-name="Path 108" d="M29.538,3H6.462A3.462,3.462,0,0,0,3,6.462V29.538A3.462,3.462,0,0,0,6.462,33H29.538A3.462,3.462,0,0,0,33,29.538V6.462A3.462,3.462,0,0,0,29.538,3ZM8.769,15.692h2.308a1.154,1.154,0,0,1,1.154,1.154v2.308a1.154,1.154,0,0,1-1.154,1.154H8.769a1.154,1.154,0,0,1-1.154-1.154V16.846A1.154,1.154,0,0,1,8.769,15.692ZM7.615,12.231V9.923A1.154,1.154,0,0,1,8.769,8.769h2.308a1.154,1.154,0,0,1,1.154,1.154v2.308a1.154,1.154,0,0,1-1.154,1.154H8.769A1.154,1.154,0,0,1,7.615,12.231ZM8.769,22.615h2.308a1.154,1.154,0,0,1,1.154,1.154v2.308a1.154,1.154,0,0,1-1.154,1.154H8.769a1.154,1.154,0,0,1-1.154-1.154V23.769A1.154,1.154,0,0,1,8.769,22.615Zm6.923,1.154H27.231a1.154,1.154,0,1,1,0,2.308H15.692a1.154,1.154,0,1,1,0-2.308ZM14.538,18a1.154,1.154,0,0,1,1.154-1.154H27.231a1.154,1.154,0,0,1,0,2.308H15.692A1.154,1.154,0,0,1,14.538,18Zm12.692-5.769H15.692a1.154,1.154,0,1,1,0-2.308H27.231a1.154,1.154,0,1,1,0,2.308Z" transform="translate(0 0)" fill="#fff"/>
  </g>
</svg>
