<svg xmlns="http://www.w3.org/2000/svg" width="29.998" height="30" viewBox="0 0 29.998 30">
  <g id="logout" transform="translate(-0.014)">
    <g id="Group_700" data-name="Group 700" transform="translate(0.014)">
      <g id="Group_699" data-name="Group 699" transform="translate(0)">
        <path id="Path_112" data-name="Path 112" d="M311.084,153.861a1.264,1.264,0,0,0-.271-.408l-3.749-3.749a1.25,1.25,0,1,0-1.767,1.767l1.616,1.616H299.93a1.25,1.25,0,1,0,0,2.5h6.982L305.3,157.2a1.25,1.25,0,1,0,1.768,1.767l3.749-3.749a1.238,1.238,0,0,0,.271-.408A1.251,1.251,0,0,0,311.084,153.861Z" transform="translate(-281.18 -140.589)" fill="#fff"/>
        <path id="Path_113" data-name="Path 113" d="M21.264,17.5a1.25,1.25,0,0,0-1.25,1.25V25h-5V5a1.251,1.251,0,0,0-.891-1.2L9.781,2.5H20.014V8.75a1.25,1.25,0,0,0,2.5,0V1.25A1.25,1.25,0,0,0,21.264,0h-20a1.114,1.114,0,0,0-.129.024,1.235,1.235,0,0,0-.53.185C.578.226.544.227.518.247.508.255.5.269.494.276A1.238,1.238,0,0,0,.161.671a1.021,1.021,0,0,0-.035.1,1.186,1.186,0,0,0-.1.292.778.778,0,0,0,0,.109c0,.025-.018.048-.018.072v25a1.249,1.249,0,0,0,1,1.225l12.5,2.5a1.163,1.163,0,0,0,.245.025,1.251,1.251,0,0,0,1.25-1.25V27.5h6.25a1.25,1.25,0,0,0,1.25-1.25v-7.5A1.25,1.25,0,0,0,21.264,17.5Z" transform="translate(-0.014)" fill="#fff"/>
      </g>
    </g>
  </g>
</svg>
