<svg xmlns="http://www.w3.org/2000/svg" width="30" height="30" viewBox="0 0 30 30">
  <path id="office" d="M11.909,22.818h8.182V31H11.909ZM31,29.636A1.364,1.364,0,0,1,29.636,31H22.818V21.455a1.364,1.364,0,0,0-1.364-1.364H10.545a1.364,1.364,0,0,0-1.364,1.364V31H2.364a1.364,1.364,0,1,1,0-2.727H3.727V2.364A1.364,1.364,0,0,1,5.091,1H26.909a1.364,1.364,0,0,1,1.364,1.364V28.273h1.364A1.364,1.364,0,0,1,31,29.636ZM11.909,13.273a1.364,1.364,0,1,0-2.727,0v1.364a1.364,1.364,0,1,0,2.727,0Zm0-6.818a1.364,1.364,0,1,0-2.727,0V7.818a1.364,1.364,0,1,0,2.727,0Zm5.455,6.818a1.364,1.364,0,1,0-2.727,0v1.364a1.364,1.364,0,0,0,2.727,0Zm0-6.818a1.364,1.364,0,1,0-2.727,0V7.818a1.364,1.364,0,1,0,2.727,0Zm5.455,6.818a1.364,1.364,0,1,0-2.727,0v1.364a1.364,1.364,0,1,0,2.727,0Zm0-6.818a1.364,1.364,0,1,0-2.727,0V7.818a1.364,1.364,0,1,0,2.727,0Z" transform="translate(-1 -1)" fill="#fff"/>
</svg>
