<svg xmlns="http://www.w3.org/2000/svg" width="22.852" height="30" viewBox="0 0 22.852 30">
  <g id="task" transform="translate(-61)">
    <path id="Path_114" data-name="Path 114" d="M171.9,237.792a5.273,5.273,0,1,0-5.273-5.273A5.279,5.279,0,0,0,171.9,237.792Zm-3.258-5.895a.879.879,0,0,1,1.243,0l1.136,1.136,2.894-2.894a.879.879,0,1,1,1.243,1.243l-3.516,3.516a.878.878,0,0,1-1.243,0l-1.758-1.758A.879.879,0,0,1,168.645,231.9Z" transform="translate(-99.441 -213.93)" fill="#fff"/>
    <path id="Path_115" data-name="Path 115" d="M61.879,30a.878.878,0,0,0-.879.879V57.363a.878.878,0,0,0,.879.879H82.973a.878.878,0,0,0,.879-.879V30.879A.878.878,0,0,0,82.973,30H78.578v4.395a.879.879,0,0,1-.879.879H67.152a.879.879,0,0,1-.879-.879V30Zm10.584,9.741a7.061,7.061,0,1,1-7.031,7.09A7.09,7.09,0,0,1,72.463,39.741Z" transform="translate(0 -28.242)" fill="#fff"/>
    <path id="Path_116" data-name="Path 116" d="M187.881,1.758a2.638,2.638,0,0,0-4.973,0H181V5.273h8.789V1.758Z" transform="translate(-112.969)" fill="#fff"/>
  </g>
</svg>
