<svg width="48" height="48" viewBox="0 0 48 48" fill="none" xmlns="http://www.w3.org/2000/svg">
<g clip-path="url(#clip0_496_5233)">
<path d="M43.1665 16.9048C43.2954 16.9016 43.4215 16.8666 43.5336 16.803C43.6457 16.7393 43.7403 16.6489 43.8091 16.5399C43.8778 16.4308 43.9185 16.3064 43.9276 16.1778C43.9367 16.0492 43.9139 15.9204 43.8612 15.8028C40.5156 8.06526 32.9785 2.97249 24.5514 2.75711C16.1243 2.54162 8.33452 7.24196 4.59792 14.7984C4.54731 14.8909 4.51593 14.9927 4.50566 15.0977C4.4954 15.2027 4.50648 15.3087 4.53821 15.4093C4.56995 15.5099 4.62171 15.603 4.69036 15.6831C4.75901 15.7631 4.84315 15.8285 4.93771 15.8752C5.03227 15.9219 5.1353 15.9491 5.24061 15.955C5.34592 15.9609 5.45133 15.9454 5.55051 15.9095C5.64969 15.8736 5.74059 15.818 5.81774 15.7461C5.89489 15.6742 5.9567 15.5874 5.99946 15.4909C9.46754 8.4775 16.6892 4.11956 24.5107 4.31951C32.3322 4.51945 39.3219 9.2405 42.427 16.422C42.4873 16.5676 42.5902 16.6916 42.7221 16.7777C42.8541 16.8639 43.009 16.9081 43.1665 16.9048Z" fill="#9B9B9B"/>
<path d="M43.8821 24.3789C41.5873 24.3998 39.6931 22.5402 39.6721 20.2454C39.651 17.9505 41.5109 16.0563 43.8057 16.0353C46.1004 16.0145 47.9947 17.8741 48.0157 20.1689C48.0367 22.4638 46.1769 24.358 43.8821 24.3789ZM43.8678 22.8146C45.3171 22.801 46.4645 21.6325 46.4513 20.1833C46.438 18.734 45.2693 17.5865 43.82 17.5998C42.3707 17.6133 41.2232 18.7818 41.2365 20.231C41.2498 21.6804 42.4185 22.8278 43.8678 22.8146Z" fill="#9B9B9B"/>
<path d="M5.15369 31.7346C5.02481 31.7378 4.89871 31.7728 4.78661 31.8365C4.67451 31.9001 4.57988 31.9905 4.51113 32.0995C4.44239 32.2086 4.40166 32.333 4.39257 32.4616C4.38348 32.5902 4.40632 32.7191 4.45904 32.8367C7.84633 40.6708 15.5278 45.7849 24.0621 45.8885C32.5965 45.9917 40.3985 41.0669 43.9749 33.3175C44.0618 33.1289 44.0703 32.9135 43.9985 32.7187C43.9267 32.5239 43.7804 32.3656 43.5919 32.2787C43.4033 32.1917 43.188 32.1832 42.9931 32.255C42.7983 32.3268 42.64 32.473 42.553 32.6615C39.2335 39.8543 32.0017 44.4201 24.0805 44.324C16.1592 44.228 9.03916 39.4867 5.8952 32.2154C5.83445 32.0699 5.73114 31.9461 5.59882 31.8603C5.4665 31.7745 5.31134 31.7307 5.15369 31.7346Z" fill="#9B9B9B"/>
<path d="M4.13574 24.2619C6.4305 24.241 8.32476 26.1006 8.34578 28.3954C8.3668 30.6901 6.50694 32.5844 4.21217 32.6055C1.9174 32.6264 0.0231518 30.7667 0.00212961 28.472C-0.0188931 26.1772 1.84097 24.283 4.13574 24.2619ZM4.15007 25.8264C2.70078 25.84 1.55329 27.0083 1.56656 28.4577C1.57984 29.9069 2.74856 31.0544 4.19784 31.0411C5.64713 31.0276 6.79462 29.8592 6.78135 28.41C6.76807 26.9606 5.59935 25.813 4.15007 25.8264Z" fill="#9B9B9B"/>
<path d="M21.498 14.671C24.0614 14.5769 26.2122 16.6796 26.3019 19.3675C26.3917 22.0553 24.3863 24.3105 21.8229 24.4046C21.7372 24.408 21.6514 24.4084 21.5657 24.4067" stroke="#9B9B9B" stroke-width="1.50041" stroke-linecap="round" stroke-linejoin="round"/>
<path d="M19.3379 24.4062H21.66" stroke="#9B9B9B" stroke-width="1.50041" stroke-linecap="round" stroke-linejoin="round"/>
<path d="M19.3379 14.668H28.6265" stroke="#9B9B9B" stroke-width="1.50041" stroke-linecap="round" stroke-linejoin="round"/>
<path d="M21.6602 24.4062L26.3044 34.1458" stroke="#9B9B9B" stroke-width="1.50041" stroke-linecap="round" stroke-linejoin="round"/>
<path d="M19.3379 19.5391H28.6265" stroke="#9B9B9B" stroke-width="1.50041" stroke-linecap="round" stroke-linejoin="round"/>
</g>
<defs>
<clipPath id="clip0_496_5233">
<rect width="48" height="48" fill="white"/>
</clipPath>
</defs>
</svg>
