<svg id="user" xmlns="http://www.w3.org/2000/svg" width="30" height="30" viewBox="0 0 30 30">
  <path id="Path_109" data-name="Path 109" d="M171.932,94.457a5.232,5.232,0,1,0,5.232,5.232A5.238,5.238,0,0,0,171.932,94.457Zm0,0" transform="translate(-156.932 -88.922)" fill="#fff"/>
  <path id="Path_110" data-name="Path 110" d="M15,0A14.992,14.992,0,0,0,3.808,24.976a11.5,11.5,0,0,1,7.464-8.3,6.99,6.99,0,1,1,7.457,0,11.506,11.506,0,0,1,7.461,8.3A14.991,14.991,0,0,0,15,0Zm0,0" fill="#fff"/>
  <path id="Path_111" data-name="Path 111" d="M91.1,312.713a14.968,14.968,0,0,0,19.324,0,9.722,9.722,0,0,0-19.324,0Zm0,0" transform="translate(-85.764 -286.25)" fill="#fff"/>
</svg>
