<svg width="28" height="18" viewBox="0 0 28 18" fill="none" xmlns="http://www.w3.org/2000/svg">
<path d="M3.0387 2.46048H1.63623C1.24762 2.46048 0.934986 2.87184 0.934986 3.38315V7.38143H0.233746C0.105186 7.38143 0 7.51983 0 7.68899V9.53434C0 9.7035 0.105186 9.8419 0.233746 9.8419H0.934986V13.8402C0.934986 14.3515 1.24762 14.7629 1.63623 14.7629H3.0387C3.42731 14.7629 3.73994 14.3515 3.73994 13.8402V3.38315C3.73994 2.87184 3.42731 2.46048 3.0387 2.46048ZM27.7663 7.38143H27.065V3.38315C27.065 2.87184 26.7524 2.46048 26.3638 2.46048H24.9613C24.5727 2.46048 24.2601 2.87184 24.2601 3.38315V13.8402C24.2601 14.3515 24.5727 14.7629 24.9613 14.7629H26.3638C26.7524 14.7629 27.065 14.3515 27.065 13.8402V9.8419H27.7663C27.8948 9.8419 28 9.7035 28 9.53434V7.68899C28 7.51983 27.8948 7.38143 27.7663 7.38143ZM22.6238 0H21.2214C20.8327 0 20.5201 0.411361 20.5201 0.922678V7.38143H7.47989V0.922678C7.47989 0.411361 7.16725 0 6.77865 0H5.37617C4.98756 0 4.67493 0.411361 4.67493 0.922678V16.3007C4.67493 16.812 4.98756 17.2233 5.37617 17.2233H6.77865C7.16725 17.2233 7.47989 16.812 7.47989 16.3007V9.8419H20.5201V16.3007C20.5201 16.812 20.8327 17.2233 21.2214 17.2233H22.6238C23.0124 17.2233 23.3251 16.812 23.3251 16.3007V0.922678C23.3251 0.411361 23.0124 0 22.6238 0Z" fill="#9B9B9B"/>
</svg>
