<svg width="512" height="512" viewBox="0 0 512 512" fill="none" xmlns="http://www.w3.org/2000/svg">
<g clip-path="url(#clip0_122_6)">
<path d="M504.251 399.55L305.495 55.296C295.164 37.402 276.66 26.72 255.999 26.72C235.338 26.72 216.834 37.403 206.503 55.296L7.74825 399.55C-2.58275 417.444 -2.58275 438.809 7.74825 456.703C18.0793 474.596 36.5823 485.279 57.2443 485.279H454.755C475.416 485.279 493.92 474.596 504.251 456.703C514.581 438.809 514.581 417.444 504.251 399.55ZM478.251 441.691C473.346 450.185 464.563 455.256 454.755 455.256H57.2443C47.4363 455.256 38.6523 450.185 33.7483 441.691C28.8443 433.197 28.8443 423.054 33.7483 414.56L232.503 70.306C237.408 61.812 246.191 56.741 255.999 56.741C265.807 56.741 274.591 61.812 279.495 70.306L478.251 414.56C483.155 423.054 483.155 433.197 478.251 441.691Z" fill="#9B9B9B"/>
<path d="M255.999 355.183C244.963 355.183 235.984 364.162 235.984 375.198C235.984 386.234 244.963 395.213 255.999 395.213C267.035 395.213 276.014 386.234 276.014 375.198C276.014 364.162 267.035 355.183 255.999 355.183Z" fill="#9B9B9B"/>
<path d="M271.008 170.044H240.986V325.159H271.008V170.044Z" fill="#9B9B9B"/>
</g>
<defs>
<clipPath id="clip0_122_6">
<rect width="511.999" height="511.999" fill="white"/>
</clipPath>
</defs>
</svg>
