<svg xmlns="http://www.w3.org/2000/svg" xmlns:xlink="http://www.w3.org/1999/xlink" width="112.699" height="84.443" viewBox="0 0 112.699 84.443">
  <defs>
    <clipPath id="clip-path">
      <path id="Path_45" data-name="Path 45" d="M-737.505-149.479a4.26,4.26,0,0,0-4.26,4.26,4.007,4.007,0,0,0,.508,2.023l15.963,27.644a4.254,4.254,0,0,0,3.689,2.138,4.255,4.255,0,0,0,3.69-2.138l15.961-27.644a3.988,3.988,0,0,0,.51-2.023,4.259,4.259,0,0,0-4.261-4.26Z" fill="#92278f"/>
    </clipPath>
    <clipPath id="clip-path-2">
      <path id="Path_48" data-name="Path 48" d="M-772.181-149.479a3.288,3.288,0,0,0-3.287,3.287,3.106,3.106,0,0,0,.392,1.558l19.862,34.4,0,.006v0a10.361,10.361,0,0,1,1.43,5.27,10.381,10.381,0,0,1-1.349,5.129L-772.4-69.9a3.08,3.08,0,0,0-.392,1.556,3.287,3.287,0,0,0,3.288,3.287h16.7a9.659,9.659,0,0,0,8.448-4.691l.345-.6,16.61-28.771.31-.535a9.765,9.765,0,0,0,1.237-4.931A10.205,10.205,0,0,0-727.2-109.7l-.175-.3L-747.11-144.19l-.344-.6a9.661,9.661,0,0,0-8.448-4.692Z" fill="#0089cf"/>
    </clipPath>
  </defs>
  <g id="Group_560" data-name="Group 560" transform="translate(-1318 -318.999)">
    <g id="Group_535" data-name="Group 535" transform="translate(2123 468.498)" clip-path="url(#clip-path)">
      <rect id="Rectangle_161" data-name="Rectangle 161" width="40.321" height="36.065" transform="translate(-741.765 -149.479)" fill="#92278f"/>
    </g>
    <path id="Path_46" data-name="Path 46" d="M-699.17-147.171a2.328,2.328,0,0,1,2.33-2.328,2.327,2.327,0,0,1,2.326,2.328,2.327,2.327,0,0,1-2.326,2.329,2.328,2.328,0,0,1-2.33-2.329m.48,0a1.854,1.854,0,0,0,1.85,1.848,1.854,1.854,0,0,0,1.846-1.848,1.85,1.85,0,0,0-1.846-1.846,1.851,1.851,0,0,0-1.85,1.846" transform="translate(2123 468.498)" fill="#92278f"/>
    <path id="Path_47" data-name="Path 47" d="M-695.965-146h-.222a.21.21,0,0,1-.2-.085l-.631-.789h-.167v.748c0,.1-.039.126-.121.126h-.154c-.1,0-.14-.02-.14-.126v-2.092c0-.114.066-.118.14-.118h.673c.384,0,.464.023.6.158a.938.938,0,0,1,.178.654c0,.393-.158.614-.516.64l.6.716c.069.083.056.168-.045.168m-.566-1.963a3.012,3.012,0,0,0-.65-.025v.767h.446c.158,0,.232-.026.275-.08a.4.4,0,0,0,.051-.255c0-.258-.042-.364-.122-.407" transform="translate(2123 468.498)" fill="#92278f"/>
    <g id="Group_539" data-name="Group 539" transform="translate(2123 468.498)" clip-path="url(#clip-path-2)">
      <rect id="Rectangle_163" data-name="Rectangle 163" width="49.613" height="84.422" transform="translate(-775.468 -149.479)" fill="#0089cf"/>
    </g>
    <path id="Path_49" data-name="Path 49" d="M-773.089-95.8a5.034,5.034,0,0,0-.886.175,14.446,14.446,0,0,1-3.083.4,4.077,4.077,0,0,1-1.518-.277c-.783-.354-.859-1.34-.834-2.606h6.168c.885,0,1.062-.151,1.062-1.54a7.737,7.737,0,0,0-.935-4.348c-.733-1.037-2-1.57-4.1-1.57-2.225,0-3.617.583-4.374,1.671-.785,1.11-1.013,2.6-1.013,4.826,0,2.506.354,4.151,1.417,5.135a5.874,5.874,0,0,0,4.1,1.186,22.726,22.726,0,0,0,3.814-.329c.785-.125.911-.528.911-1.112a4.6,4.6,0,0,0-.049-.833c-.077-.329-.3-.783-.683-.783m-6.321-4.756c0-1.843.38-2.475,2.2-2.475,1.719,0,1.945.656,1.945,2.223v.481h-4.145Zm-9.034-5a7.966,7.966,0,0,0-3.415.859v-4.677a.961.961,0,0,0-.985-1.088h-1.137c-.733,0-1.112.228-1.112,1.088v15.3c0,.605.2,1.008.911,1.008h1.338c.784,0,.985-.429.985-1.137V-100c0-1.811.375-2.43,2.161-2.43,1.69,0,1.913.644,1.913,2.182v.472h-.006c0,.245.006.521.006.833v4.738c0,.76.251,1.137.908,1.137h1.343c.78,0,.984-.429.984-1.137v-7.759c0-1.648-.784-3.593-3.894-3.593" transform="translate(2123 468.498)" fill="#0089cf"/>
    <path id="Path_50" data-name="Path 50" d="M-797.72-102.528h-2.73v5.083A5.36,5.36,0,0,0-800.3-95.6a.415.415,0,0,0,.379.2c.709,0,1.49-.379,2.074-.379a.648.648,0,0,1,.684.706v.911c0,.935-.255,1.19-1.063,1.264a20.939,20.939,0,0,1-2.2.127c-2.681,0-3.261-.987-3.261-4v-5.765h-.708c-.479,0-.606-.328-.606-.732v-1.088c0-.633.252-.834.682-.834h.632v-2.049c0-.859.354-1.113,1.087-1.113h1.138a1,1,0,0,1,1.011,1.113v2.049h2.479c.555,0,.859.076.859.809v.884c0,.859-.152.961-.608.961" transform="translate(2123 468.498)" fill="#0089cf"/>
    <path id="Path_51" data-name="Path 51" d="M-738.2-73.027l1.938,3.28,1.832,1.058a.374.374,0,0,1,.162.582l-.207.368c-.165.282-.316.363-.613.191l-1.764-1.018-4.021-.048a.573.573,0,0,1-.3-.058.337.337,0,0,1-.078-.49l.264-.459a.472.472,0,0,1,.494-.283l2.754.055-1.42-2.388a.467.467,0,0,1,.008-.564l.218-.374c.128-.224.3-.257.467-.162a.906.906,0,0,1,.263.31" transform="translate(2123 468.498)" fill="#92278f"/>
    <path id="Path_52" data-name="Path 52" d="M-729.611-76.166l-.207.357c-.147.255-.329.274-.578.154l-3.6-1.781c.149.177.362.415.528.6.643.758,1.343,1.537,1.754,2.06a.5.5,0,0,1,.063.658l-.128.223a.491.491,0,0,1-.6.269c-.657-.1-1.693-.294-2.671-.473-.248-.041-.551-.125-.779-.165l3.34,2.226c.231.156.3.324.158.576l-.207.36c-.153.263-.333.4-.634.19l-4.71-3.3c-.292-.2-.218-.409-.1-.614l.27-.468a.46.46,0,0,1,.516-.282c.967.138,2.661.468,3.961.695-.847-1.01-1.982-2.313-2.584-3.082a.459.459,0,0,1-.012-.586l.27-.469c.118-.2.261-.372.581-.222l5.212,2.431c.33.153.3.378.152.644" transform="translate(2123 468.498)" fill="#92278f"/>
    <path id="Path_53" data-name="Path 53" d="M-726.94-80.637c-.187.383-.291.6-.518,1a5,5,0,0,1-.683.947c-.975,1.018-2.149.692-3.625-.16-2.5-1.446-2.515-2.509-1.556-4.171.228-.392.366-.6.6-.947.227-.335.364-.381.556-.27l.28.161c.3.176.378.288.221.558-.183.318-.314.447-.575.9a3.348,3.348,0,0,0-.417,1c-.068.63.6,1.036,1.576,1.6.964.558,1.742.941,2.306.279a4.994,4.994,0,0,0,.422-.631c.261-.452.308-.631.489-.947.156-.272.288-.263.6-.086l.282.162c.187.108.219.252.042.615" transform="translate(2123 468.498)" fill="#92278f"/>
    <path id="Path_54" data-name="Path 54" d="M-723.814-86.208l-.271.468a.424.424,0,0,1-.53.228l-1.283-.238c-.2.372-.358.644-.577,1.018-.206.358-.387.675-.573.974l.808.923c.187.209.275.352.106.639l-.225.395c-.168.291-.269.288-.4.213a.966.966,0,0,1-.225-.221l-3.866-4.561a.521.521,0,0,1-.093-.724l.2-.349a.523.523,0,0,1,.667-.288l6.03,1.028a.4.4,0,0,1,.15.041c.21.122.156.317.078.454m-5.552-.206,1.615,1.845c.114-.2.239-.432.381-.678.153-.266.266-.441.408-.688Z" transform="translate(2123 468.498)" fill="#92278f"/>
    <rect id="Rectangle_164" data-name="Rectangle 164" width="112.699" height="84.442" transform="translate(1318 319)" fill="none"/>
  </g>
</svg>
